<svg width="78" height="78" viewBox="0 0 78 78" fill="none" xmlns="http://www.w3.org/2000/svg">
<path d="M44.4077 64.1161H35.9702L51.3325 23.5967H61.091L76.4746 64.1161H68.0371L56.3822 31.9063H56.0413L44.4077 64.1161ZM44.6848 48.2288H67.6961V54.1248H44.6848V48.2288Z" fill="#161616"/>
<path d="M42.9741 20.9429L51.3003 23.6477L39.994 53.931C38.9427 56.7021 37.4166 58.8867 35.4162 60.4848C33.421 62.0691 31.0981 63.0358 28.4476 63.3852C25.8174 63.7256 23.0166 63.413 20.0451 62.4476C17.3301 61.5657 15.054 60.3233 13.2169 58.7204C11.4002 57.1083 10.1907 55.2062 9.58844 53.014C8.98618 50.8219 9.17968 48.4008 10.169 45.751L18.5178 48.4634C18.0984 49.6318 17.9956 50.7226 18.2095 51.7352C18.4384 52.7528 18.9444 53.6403 19.7271 54.3976C20.5099 55.1551 21.5197 55.7346 22.7566 56.1365C24.099 56.5726 25.3347 56.6832 26.4636 56.4683C27.5976 56.2393 28.5997 55.6843 29.4697 54.8038C30.3547 53.928 31.0875 52.7354 31.668 51.2261L42.9741 20.9429Z" fill="#FD521C"/>
</svg>
